# Vertices 8
v  0.0 -1.3224 -0.1378
v  0.0 1.3224 -0.1378
v  -0.0 -1.3224 18.5037
v  -0.0 1.3224 18.5037
v  1.3224 -0.0 -0.1378
v  -1.3224 0.0 -0.1378
v  1.3224 -0.0 18.5037
v  -1.3224 -0.0 18.5037

# UVs 4
vt  0.0795 0.0002
vt  0.9152 0.001
vt  0.08 0.9978
vt  0.9135 0.9983

# Normals 8
vn  1.0 -0.0 -0.0
vn  1.0 -0.0 -0.0
vn  1.0 -0.0 -0.0
vn  1.0 -0.0 -0.0
vn  -0.0 1.0 -0.0
vn  -0.0 1.0 -0.0
vn  -0.0 1.0 -0.0
vn  -0.0 1.0 -0.0

# Faces 4
f  3/3/3 1/1/1 4/4/4
f  2/2/2 4/4/4 1/1/1
f  7/3/7 5/1/5 8/4/8
f  6/2/6 8/4/8 5/1/5