# Vertices 8
v  0.0 -1.0014 31.6011
v  -0.0 1.0014 31.6011
v  0.0 -1.0014 -5.4394
v  -0.0 1.0014 -5.4394
v  -0.9957 -0.0 31.6011
v  0.9957 0.0 31.6011
v  -0.9957 -0.0 -5.4394
v  0.9957 0.0 -5.4394

# UVs 4
vt  0.4163 -0.0047
vt  0.5676 -0.0039
vt  0.4171 0.9978
vt  0.5644 0.9983

# Normals 8
vn  -1.0 -0.0 -0.0
vn  -1.0 -0.0 -0.0
vn  -1.0 -0.0 -0.0
vn  -1.0 -0.0 -0.0
vn  -0.0 1.0 -0.0
vn  -0.0 1.0 -0.0
vn  -0.0 1.0 -0.0
vn  -0.0 1.0 -0.0

# Faces 4
f  3/3/3 1/1/1 4/4/4
f  2/2/2 4/4/4 1/1/1
f  7/3/7 5/1/5 8/4/8
f  6/2/6 8/4/8 5/1/5