# Vertices 8
v  0.0 -0.9411 35.8146
v  -0.0 0.9411 35.8146
v  0.0 -0.9411 -6.1646
v  -0.0 0.9411 -6.1646
v  -0.9358 -0.0 35.8146
v  0.9358 0.0 35.8146
v  -0.9358 -0.0 -6.1646
v  0.9358 0.0 -6.1646

# UVs 4
vt  0.8519 -0.0047
vt  1.0032 -0.0039
vt  0.8528 0.9978
vt  1.0 0.9983

# Normals 8
vn  -1.0 -0.0 -0.0
vn  -1.0 -0.0 -0.0
vn  -1.0 -0.0 -0.0
vn  -1.0 -0.0 -0.0
vn  -0.0 1.0 -0.0
vn  -0.0 1.0 -0.0
vn  -0.0 1.0 -0.0
vn  -0.0 1.0 -0.0

# Faces 4
f  3/3/3 1/1/1 4/4/4
f  2/2/2 4/4/4 1/1/1
f  7/3/7 5/1/5 8/4/8
f  6/2/6 8/4/8 5/1/5