# Vertices 8
v  -0.8418 0.0 45.7406
v  0.8419 0.0 45.7406
v  -0.8418 0.0 -45.7408
v  0.8419 0.0 -45.7408
v  45.7408 0.0 -0.8419
v  -45.7406 0.0 -0.8419
v  45.7408 0.0 0.8418
v  -45.7406 0.0 0.8418

# UVs 18
vt  0.1262 0.1935
vt  0.1608 0.1557
vt  0.8366 0.8391
vt  0.8712 0.8013
vt  0.1262 0.1935
vt  0.8122 0.133
vt  0.8491 0.1686
vt  0.8491 0.1686
vt  0.1482 0.8262
vt  0.1482 0.8262
vt  0.8712 0.8013
vt  0.1852 0.8618
vt  0.8366 0.8391
vt  0.1262 0.1935
vt  0.8712 0.8013
vt  0.1608 0.1557
vt  0.8712 0.8013
vt  0.1262 0.1935

# Normals 8
vn  -0.0 1.0 -0.0
vn  -0.0 1.0 -0.0
vn  -0.0 1.0 -0.0
vn  -0.0 1.0 -0.0
vn  -0.0 1.0 -0.0
vn  -0.0 1.0 -0.0
vn  -0.0 1.0 -0.0
vn  -0.0 1.0 -0.0

# Faces 4
f  3/3/3 1/1/1 4/4/4
f  2/2/2 4/11/4 1/5/1
f  5/13/5 6/14/6 7/15/7
f  8/16/8 7/17/7 6/18/6