# Vertices 13
v  0.1545 2.3172 -0.3363
v  0.0248 1.6903 0.0166
v  2.6384 0.7596 -0.9605
v  0.4854 0.7596 -2.7354
v  -2.1282 0.7596 -1.7582
v  -2.5888 0.7596 0.9938
v  -0.4357 0.7596 2.7687
v  2.1779 0.7596 1.7915
v  0.1545 -0.0041 -0.3363
v  14.7492 0.492 49.4636
v  49.3407 0.492 -14.5054
v  -49.1679 0.492 14.6156
v  -14.5764 0.492 -49.3534

# UVs 5
vt  0.0097 0.9879
vt  1.0 0.9286
vt  0.0745 1.0
vt  0.9255 0.0
vt  0.0 0.0714

# Normals 13
vn  0.0 0.0 0.0
vn  -0.0 0.9332 0.0
vn  0.2922 0.9332 0.1106
vn  0.0522 0.9332 0.3071
vn  -0.2419 0.9332 0.2
vn  -0.2922 0.9332 -0.1106
vn  -0.0522 0.9332 -0.3071
vn  0.2419 0.9332 -0.2
vn  0.0 0.0 0.0
vn  -0.0 1.0 -0.0
vn  -0.0 1.0 -0.0
vn  -0.0 1.0 -0.0
vn  -0.0 1.0 -0.0

# Faces 8
f  2/1/2 3/1/3 4/1/4
f  2/1/2 4/1/4 5/1/5
f  2/1/2 5/1/5 6/1/6
f  2/1/2 6/1/6 7/1/7
f  2/1/2 7/1/7 8/1/8
f  2/1/2 8/1/8 3/1/3
f  12/4/12 10/2/10 13/5/13
f  11/3/11 13/5/13 10/2/10