# Vertices 20
v  -6.0392 51.6915 -39.2606
v  -5.0968 48.7026 -39.2606
v  -1.9629 48.6753 -39.2606
v  -0.9685 51.6473 -39.2606
v  -3.4878 53.5115 -39.2606
v  -6.0392 51.6915 41.0304
v  -5.0967 48.7026 41.0304
v  -1.9629 48.6753 41.0304
v  -0.9685 51.6473 41.0304
v  -3.4877 53.5115 41.0304
v  1.9258 51.6915 -39.2606
v  2.8682 48.7026 -39.2606
v  6.0021 48.6753 -39.2606
v  6.9965 51.6473 -39.2606
v  4.4772 53.5115 -39.2606
v  1.9258 51.6915 41.0304
v  2.8682 48.7026 41.0304
v  6.0021 48.6753 41.0304
v  6.9965 51.6473 41.0304
v  4.4772 53.5115 41.0304

# UVs 12
vt  0.9995 0.5008
vt  0.9995 0.0038
vt  0.0011 0.5008
vt  0.0011 0.0038
vt  -0.0 0.5095
vt  1.0 1.0
vt  1.0 0.5095
vt  0.0 1.0
vt  0.5709 -0.0
vt  0.6658 -0.0
vt  0.5709 0.4869
vt  0.6658 0.4869

# Normals 20
vn  -0.8675 0.1132 -0.0
vn  -0.9537 -0.3007 -0.0
vn  0.9483 -0.3173 0.0
vn  0.7451 0.4924 -0.0
vn  -0.1994 0.8107 -0.0
vn  -0.7412 0.5075 -0.0
vn  -0.9537 -0.3007 -0.0
vn  0.9483 -0.3173 0.0
vn  0.8646 0.0958 0.0
vn  0.2164 0.8073 -0.0
vn  -0.8675 0.1132 -0.0
vn  -0.9537 -0.3007 -0.0
vn  0.9483 -0.3173 -0.0
vn  0.7451 0.4924 -0.0
vn  -0.1994 0.8107 -0.0
vn  -0.7412 0.5075 -0.0
vn  -0.9537 -0.3007 -0.0
vn  0.9483 -0.3173 -0.0
vn  0.8646 0.0958 -0.0
vn  0.2164 0.8073 -0.0

# Faces 16
f  1/8/1 7/7/7 6/6/6
f  1/8/1 2/5/2 7/7/7
f  3/8/3 9/7/9 8/6/8
f  3/8/3 4/5/4 9/7/9
f  4/8/4 10/7/10 9/6/9
f  4/8/4 5/5/5 10/7/10
f  5/8/5 6/7/6 10/6/10
f  5/8/5 1/5/1 6/7/6
f  11/8/11 17/7/17 16/6/16
f  11/8/11 12/5/12 17/7/17
f  13/8/13 19/7/19 18/6/18
f  13/8/13 14/5/14 19/7/19
f  14/8/14 20/7/20 19/6/19
f  14/8/14 15/5/15 20/7/20
f  15/8/15 16/7/16 20/6/20
f  15/8/15 11/5/11 16/7/16