# Vertices 48
v  9.8615 43.973 79.5385
v  9.8615 40.5524 27.4639
v  9.8615 40.5951 -19.5459
v  9.8615 44.0772 -79.5385
v  9.1129 43.973 79.5385
v  9.1129 40.5524 27.4639
v  9.1129 40.5951 -19.5459
v  9.1128 44.0772 -79.5385
v  14.2198 43.973 79.5385
v  14.2198 40.5524 27.4639
v  13.4712 40.5524 27.4639
v  13.4712 43.973 79.5385
v  14.2198 40.5951 -19.5459
v  13.4712 40.5951 -19.5459
v  14.2198 44.0772 -79.5385
v  13.4712 44.0772 -79.5385
v  -8.929 43.973 79.5385
v  -8.929 40.5524 27.4639
v  -9.6776 41.3121 27.4639
v  -9.6776 44.7328 79.5385
v  -8.929 40.5951 -19.5459
v  -9.6776 41.3549 -19.5459
v  -8.929 44.0772 -79.5385
v  -9.6776 44.837 -79.5385
v  -13.5078 43.973 79.5385
v  -13.5078 40.5524 27.4639
v  -14.2564 40.5524 27.4639
v  -14.2564 43.973 79.5385
v  -13.5078 40.5951 -19.5459
v  -14.2564 40.5951 -19.5459
v  -13.5078 44.0772 -79.5385
v  -14.2564 44.0772 -79.5385
v  9.4889 41.3121 27.4639
v  9.4889 44.7328 79.5385
v  9.4889 41.3549 -19.5459
v  9.4889 44.837 -79.5385
v  13.8518 41.3121 27.4639
v  13.8518 44.7328 79.5385
v  13.8518 41.3549 -19.5459
v  13.8518 44.837 -79.5385
v  -9.3234 41.3121 27.4639
v  -9.3234 44.7328 79.5385
v  -9.3234 41.3549 -19.5459
v  -9.3234 44.837 -79.5385
v  -13.9264 41.3121 27.4639
v  -13.9264 44.7328 79.5385
v  -13.9264 41.3549 -19.5459
v  -13.9264 44.837 -79.5385

# UVs 6
vt  0.9991 0.1856
vt  0.0008 0.0031
vt  0.9991 0.0031
vt  0.0008 0.1856
vt  0.9991 0.0932
vt  0.0008 0.0932

# Normals 48
vn  0.8975 0.4401 0.0289
vn  0.8976 0.4401 0.0191
vn  0.8978 0.4402 -0.0088
vn  0.8976 0.4401 -0.0255
vn  -0.8959 0.4434 0.0291
vn  -0.896 0.4435 0.0193
vn  -0.8961 0.4435 -0.0088
vn  -0.8959 0.4435 -0.0257
vn  0.8996 0.4358 0.0286
vn  0.8997 0.4359 0.019
vn  -0.8939 0.4477 0.0195
vn  -0.8937 0.4476 0.0294
vn  0.8999 0.4359 -0.0087
vn  -0.894 0.4478 -0.0089
vn  0.8997 0.4358 -0.0253
vn  -0.8938 0.4477 -0.026
vn  0.8871 0.4605 0.0303
vn  0.8872 0.4606 0.02
vn  -0.0 0.999 0.0434
vn  -0.0 0.9978 0.0655
vn  0.8874 0.4607 -0.0092
vn  -0.0 0.9998 -0.0199
vn  0.8872 0.4606 -0.0267
vn  -0.0 0.9983 -0.0579
vn  0.8754 0.4823 0.0317
vn  0.8756 0.4824 0.021
vn  -0.917 0.3983 0.0173
vn  -0.9169 0.3982 0.0262
vn  0.8757 0.4825 -0.0096
vn  -0.9171 0.3983 -0.0079
vn  0.8755 0.4824 -0.028
vn  -0.917 0.3983 -0.0231
vn  0.0019 0.4419 0.0094
vn  0.0019 0.4417 0.029
vn  0.0019 0.4418 -0.0172
vn  0.0019 0.4418 -0.0256
vn  0.0066 0.4418 0.0094
vn  0.0066 0.4417 0.029
vn  0.0066 0.4418 -0.0172
vn  0.0066 0.4418 -0.0256
vn  0.5191 0.8487 0.0155
vn  0.5189 0.8371 0.0479
vn  0.5191 0.8443 -0.0285
vn  0.519 0.8392 -0.0423
vn  -0.0469 0.4409 0.0094
vn  -0.047 0.4408 0.0289
vn  -0.0469 0.4409 -0.0172
vn  -0.047 0.4408 -0.0256

# Faces 48
f  2/3/2 33/5/33 34/6/34
f  34/6/34 1/2/1 2/3/2
f  3/4/3 35/6/35 33/5/33
f  33/5/33 2/1/2 3/4/3
f  4/4/4 36/6/36 35/5/35
f  35/5/35 3/1/3 4/4/4
f  10/3/10 37/5/37 38/6/38
f  38/6/38 9/2/9 10/3/10
f  13/4/13 39/6/39 37/5/37
f  37/5/37 10/1/10 13/4/13
f  15/4/15 40/6/40 39/5/39
f  39/5/39 13/1/13 15/4/15
f  18/3/18 41/5/41 42/6/42
f  42/6/42 17/2/17 18/3/18
f  21/4/21 43/6/43 41/5/41
f  41/5/41 18/1/18 21/4/21
f  23/4/23 44/6/44 43/5/43
f  43/5/43 21/1/21 23/4/23
f  26/3/26 45/5/45 46/6/46
f  46/6/46 25/2/25 26/3/26
f  29/4/29 47/6/47 45/5/45
f  45/5/45 26/1/26 29/4/29
f  31/4/31 48/6/48 47/5/47
f  47/5/47 29/1/29 31/4/31
f  6/1/6 5/4/5 34/6/34
f  34/6/34 33/5/33 6/1/6
f  7/2/7 6/3/6 33/5/33
f  33/5/33 35/6/35 7/2/7
f  8/2/8 7/3/7 35/5/35
f  35/5/35 36/6/36 8/2/8
f  11/1/11 12/4/12 38/6/38
f  38/6/38 37/5/37 11/1/11
f  14/2/14 11/3/11 37/5/37
f  37/5/37 39/6/39 14/2/14
f  16/2/16 14/3/14 39/5/39
f  39/5/39 40/6/40 16/2/16
f  19/1/19 20/4/20 42/6/42
f  42/6/42 41/5/41 19/1/19
f  22/2/22 19/3/19 41/5/41
f  41/5/41 43/6/43 22/2/22
f  24/2/24 22/3/22 43/5/43
f  43/5/43 44/6/44 24/2/24
f  27/1/27 28/4/28 46/6/46
f  46/6/46 45/5/45 27/1/27
f  30/2/30 27/3/27 45/5/45
f  45/5/45 47/6/47 30/2/30
f  32/2/32 30/3/30 47/5/47
f  47/5/47 48/6/48 32/2/32