# Vertices 8
v  -15.6262 4.3146 -6.8999
v  0.5955 -1.1155 -4.9694
v  -4.1756 7.7715 6.2153
v  7.0829 -9.9996 1.1884
v  0.5955 -1.6588 -4.9694
v  -15.6262 3.7713 -6.8999
v  -4.1756 7.2282 6.2153
v  7.0829 -10.5429 1.1884

# UVs 4
vt  0.0023 0.0048
vt  1.0 0.0
vt  1.0 1.0
vt  0.0 1.0

# Normals 8
vn  0.328 0.8028 0.498
vn  0.6113 0.6868 0.2973
vn  0.6113 0.6868 0.2973
vn  0.8312 0.5499 0.0823
vn  -0.6113 -0.6868 -0.2973
vn  -0.328 -0.8028 -0.498
vn  -0.6113 -0.6868 -0.2973
vn  -0.8312 -0.5499 -0.0823

# Faces 4
f  2/1/2 1/2/1 3/3/3
f  3/3/3 4/4/4 2/1/2
f  6/2/6 5/1/5 7/3/7
f  8/4/8 7/3/7 5/1/5