# Vertices 10
v  -7.4998 -1.9437 -7.4961
v  -0.6167 -3.3364 -6.399
v  5.0093 3.6602 13.6432
v  5.0808 3.3022 -0.6119
v  -0.6167 -3.8088 -6.399
v  -7.4998 -2.4161 -7.4961
v  -0.9904 3.4052 14.6325
v  5.0808 2.8298 -0.6119
v  -0.9904 3.712 14.6325
v  5.0093 3.3534 13.6432

# UVs 5
vt  0.2209 -0.7292
vt  0.0005 0.7812
vt  0.9995 0.2389
vt  0.4358 1.7292
vt  0.8994 1.6301

# Normals 10
vn  0.2353 0.9228 0.3051
vn  -0.2165 0.866 0.2163
vn  -0.4314 0.8323 0.1712
vn  -0.7498 0.6613 0.0204
vn  0.2149 -0.8647 -0.2234
vn  -0.2359 -0.9205 -0.3115
vn  -0.0962 -0.9331 -0.3182
vn  0.7463 -0.665 -0.0282
vn  0.0965 0.9354 0.3116
vn  0.4295 -0.8317 -0.1785

# Faces 6
f  2/1/2 1/2/1 9/4/9
f  3/5/3 4/3/4 2/1/2
f  6/2/6 5/1/5 7/4/7
f  8/3/8 10/5/10 5/1/5
f  9/4/9 3/5/3 2/1/2
f  7/4/7 5/1/5 10/5/10