# Vertices 10
v  -10.4963 -3.4648 2.2739
v  -5.8641 -3.5668 -9.9402
v  8.3927 -1.541 9.1385
v  10.4963 -0.0436 -2.1116
v  -5.8641 -4.0393 -9.9402
v  -10.4963 -3.9372 2.2739
v  -1.3491 3.5668 9.9402
v  10.4963 -0.516 -2.1117
v  -1.3491 4.0393 9.9402
v  8.3927 -2.0134 9.1385

# UVs 5
vt  0.2209 -0.7292
vt  0.0005 0.7812
vt  0.9995 0.2389
vt  0.4358 1.7292
vt  0.8994 1.6301

# Normals 10
vn  -0.5144 0.8334 0.202
vn  -0.1154 0.8806 0.1788
vn  0.0965 0.9014 0.1671
vn  -0.2473 0.9654 -0.0823
vn  0.1154 -0.8806 -0.1788
vn  0.5144 -0.8334 -0.202
vn  0.0485 -0.8204 -0.3058
vn  0.2473 -0.9654 0.0823
vn  -0.0485 0.8204 0.3058
vn  -0.0965 -0.9014 -0.1671

# Faces 6
f  2/1/2 1/2/1 9/4/9
f  3/5/3 4/3/4 2/1/2
f  6/2/6 5/1/5 7/4/7
f  8/3/8 10/5/10 5/1/5
f  9/4/9 3/5/3 2/1/2
f  7/4/7 5/1/5 10/5/10