# Vertices 8
v  -0.0 1.2 4.8
v  0.0 -1.2 4.8
v  -0.0 1.2 -4.8
v  0.0 -1.2 -4.8
v  -1.2 0.0 4.8
v  1.2 -0.0 4.8
v  -1.2 0.0 -4.8
v  1.2 -0.0 -4.8

# UVs 8
vt  0.0 0.0
vt  1.0 0.0
vt  0.0 1.0
vt  1.0 0.9997
vt  0.0 0.0
vt  1.0 0.0
vt  0.0 1.0
vt  1.0 0.9997

# Normals 8
vn  1.0 -0.0 -0.0
vn  1.0 -0.0 -0.0
vn  1.0 -0.0 -0.0
vn  1.0 -0.0 -0.0
vn  -0.0 1.0 -0.0
vn  -0.0 1.0 -0.0
vn  -0.0 1.0 -0.0
vn  -0.0 1.0 -0.0

# Faces 4
f  3/3/3 1/1/1 4/4/4
f  2/2/2 4/4/4 1/1/1
f  7/7/7 5/5/5 8/8/8
f  6/6/6 8/8/8 5/5/5