# Vertices 8
v  -0.0003 -92.1395 -0.1105
v  -0.0003 92.139 -0.1105
v  -0.0006 -92.1398 -870.5519
v  -0.0006 92.1387 -870.5519
v  -105.2547 -0.0003 3.2632
v  105.2541 -0.0003 3.2633
v  -105.2551 -0.0006 -873.9257
v  105.2538 -0.0006 -873.9257

# UVs 4
vt  0.6192 0.0045
vt  0.8115 0.0045
vt  0.6192 0.9952
vt  0.8115 0.9952

# Normals 8
vn  -1.0 0.0 -0.0
vn  -1.0 0.0 -0.0
vn  -1.0 0.0 -0.0
vn  -1.0 0.0 -0.0
vn  0.0 1.0 0.0
vn  0.0 1.0 0.0
vn  0.0 1.0 0.0
vn  0.0 1.0 0.0

# Faces 4
f  3/3/3 1/1/1 4/4/4
f  2/2/2 4/4/4 1/1/1
f  7/4/7 5/2/5 8/3/8
f  6/1/6 8/3/8 5/2/5