# Vertices 6
v  11.9348 5.0778 -0.0
v  3.688 5.0778 -11.3507
v  -9.6555 5.0778 -7.0151
v  -9.6555 5.0778 7.0151
v  3.688 5.0778 11.3507
v  0.0 0.1831 -0.0

# UVs 6
vt  0.5036 0.0919
vt  0.8197 -0.0113
vt  1.0064 0.179
vt  0.9341 0.5207
vt  0.5098 0.4814
vt  0.7553 0.2609

# Normals 6
vn  -0.3658 0.8919 -0.0
vn  -0.1169 0.8919 -0.3492
vn  0.3 0.8919 -0.2204
vn  0.3 0.8919 0.2204
vn  -0.1169 0.8919 0.3492
vn  0.0001 0.8919 0.0

# Faces 5
f  6/6/6 1/1/1 2/2/2
f  6/6/6 2/2/2 3/3/3
f  6/6/6 3/3/3 4/4/4
f  6/6/6 4/4/4 5/5/5
f  6/6/6 5/5/5 1/1/1