# Vertices 50
v  -0.3633 -0.361 -0.345
v  0.9788 4.1663 6.9889
v  5.3464 4.1663 11.1373
v  8.1061 1.9251 12.4437
v  4.0044 5.3825 3.8033
v  8.3721 5.3825 7.9517
v  12.1613 2.6126 11.5506
v  7.03 4.1663 0.6177
v  11.3977 4.1663 4.7661
v  12.8445 1.9251 7.4548
v  -10.0972 4.1663 -0.6374
v  -8.2043 5.3825 3.3275
v  0.4521 -0.361 -0.2158
v  -16.4881 5.3825 6.9834
v  -18.3809 4.1663 3.0186
v  -24.3636 0.5419 9.9672
v  -23.7473 -0.1456 5.8608
v  -6.3115 4.1663 7.2923
v  -14.5952 4.1663 10.9482
v  -20.783 -0.1456 12.07
v  -6.7462 5.6195 -7.5398
v  -8.18 6.8357 -3.3868
v  0.4736 -0.361 0.1635
v  -12.6976 7.544 -5.2386
v  -11.2638 6.3278 -9.3914
v  -20.2761 0.5419 -8.5817
v  -16.9554 -0.1456 -11.0747
v  -9.6138 5.6195 0.7661
v  -14.1315 6.3278 -1.0856
v  -19.2009 -0.1456 -4.5709
v  6.7498 4.1663 -7.5365
v  2.4641 5.3825 -8.5036
v  -0.1103 -0.361 0.4887
v  4.7193 5.3825 -17.2729
v  9.005 4.1663 -16.3058
v  7.2498 0.5419 -25.3055
v  10.0939 -0.1456 -22.28
v  -1.8216 4.1663 -9.4707
v  0.4336 4.1663 -18.24
v  3.3821 -0.1456 -23.7945
v  8.7062 5.8479 1.693
v  7.9854 6.6748 -2.2755
v  -0.332 0.4989 -0.4818
v  16.1925 3.2823 -4.7635
v  17.2633 2.0661 -0.4468
v  24.429 2.1769 -7.6924
v  23.5828 1.4894 -3.6271
v  6.3185 5.4586 -6.3405
v  14.5257 2.0661 -8.8285
v  20.9723 1.4894 -9.9932

# UVs 50
vt  0.927 0.0494
vt  0.8684 0.5414
vt  0.5711 0.8372
vt  0.37 0.9432
vt  0.6574 0.3176
vt  0.3601 0.6135
vt  0.0888 0.8835
vt  0.4347 0.1056
vt  0.1374 0.4015
vt  0.0305 0.602
vt  0.8128 0.4867
vt  0.6698 0.3252
vt  0.9563 0.0161
vt  0.3587 0.6384
vt  0.5017 0.8
vt  0.0638 0.9645
vt  0.2592 1.0119
vt  0.5158 0.1734
vt  0.2048 0.4867
vt  0.0267 0.7666
vt  0.7532 0.5674
vt  0.5976 0.3713
vt  0.9497 0.0341
vt  0.3996 0.5586
vt  0.5552 0.7547
vt  0.0344 0.9161
vt  0.2583 0.9838
vt  0.4307 0.1842
vt  0.2328 0.3715
vt  0.0058 0.6837
vt  0.8092 0.4934
vt  0.675 0.3221
vt  0.9822 0.0281
vt  0.3429 0.6188
vt  0.4771 0.7901
vt  0.0262 0.9294
vt  0.2201 0.9889
vt  0.5291 0.16
vt  0.197 0.4567
vt  0.0008 0.7278
vt  0.8647 0.4548
vt  0.7144 0.3266
vt  0.9671 0.0248
vt  0.3988 0.6266
vt  0.5543 0.779
vt  0.0721 0.9126
vt  0.2645 0.9754
vt  0.5749 0.1596
vt  0.2593 0.4596
vt  0.0531 0.71

# Normals 50
vn  -0.4967 0.7096 0.4722
vn  -0.3416 0.9045 -0.02
vn  0.0213 0.8315 -0.5234
vn  0.0817 0.5751 -0.814
vn  -0.1701 0.8894 0.2335
vn  0.0995 0.9296 -0.1678
vn  0.4172 0.7327 -0.3984
vn  -0.0891 0.8649 0.4117
vn  0.4444 0.8731 0.052
vn  0.8171 0.5751 -0.0397
vn  0.0545 0.9282 0.3074
vn  0.2126 0.9213 0.0408
vn  0.4631 0.8291 0.2236
vn  -0.203 0.925 -0.0363
vn  -0.4525 0.8579 0.1584
vn  -0.4726 0.7599 -0.2504
vn  -0.679 0.7006 0.2192
vn  0.3388 0.9103 -0.1196
vn  -0.1129 0.8749 -0.4205
vn  -0.3036 0.6232 -0.7207
vn  0.3774 0.9055 0.1345
vn  0.2949 0.8982 -0.1579
vn  0.5655 0.7737 -0.2002
vn  -0.1575 0.8894 0.1068
vn  -0.2473 0.7846 0.4529
vn  -0.6227 0.6399 0.2276
vn  -0.4218 0.5569 0.7155
vn  0.2657 0.8838 -0.3438
vn  -0.3997 0.8249 -0.2185
vn  -0.8226 0.4811 -0.303
vn  0.2088 0.9282 -0.2389
vn  -0.0989 0.9213 -0.194
vn  -0.1167 0.8291 -0.4982
vn  0.097 0.925 0.1834
vn  0.4002 0.8579 0.2513
vn  0.1174 0.7599 0.5124
vn  0.5924 0.7006 0.3977
vn  -0.2972 0.9103 -0.1917
vn  -0.2537 0.8749 0.3561
vn  -0.3782 0.6232 0.6845
vn  0.0993 0.8692 -0.1748
vn  -0.0532 0.8622 0.0751
vn  -0.5669 0.802 -0.1354
vn  0.2677 0.9224 0.0403
vn  0.277 0.9388 -0.1882
vn  0.1115 0.9542 0.0513
vn  0.1893 0.9609 -0.2019
vn  -0.1884 0.8508 0.1875
vn  0.1414 0.9242 0.3406
vn  0.0264 0.9462 0.3224

# Faces 50
f  2/2/2 5/5/5 1/1/1
f  5/5/5 2/2/2 6/6/6
f  3/3/3 6/6/6 2/2/2
f  6/6/6 3/3/3 7/7/7
f  4/4/4 7/7/7 3/3/3
f  5/5/5 8/8/8 1/1/1
f  8/8/8 5/5/5 9/9/9
f  6/6/6 9/9/9 5/5/5
f  9/9/9 6/6/6 7/7/7
f  7/7/7 10/10/10 9/9/9
f  11/11/11 12/12/12 13/13/13
f  12/12/12 11/11/11 14/14/14
f  15/15/15 14/14/14 11/11/11
f  14/14/14 15/15/15 16/16/16
f  17/17/17 16/16/16 15/15/15
f  12/12/12 18/18/18 13/13/13
f  18/18/18 12/12/12 19/19/19
f  14/14/14 19/19/19 12/12/12
f  19/19/19 14/14/14 16/16/16
f  16/16/16 20/20/20 19/19/19
f  21/21/21 22/22/22 23/23/23
f  22/22/22 21/21/21 24/24/24
f  25/25/25 24/24/24 21/21/21
f  24/24/24 25/25/25 26/26/26
f  27/27/27 26/26/26 25/25/25
f  22/22/22 28/28/28 23/23/23
f  28/28/28 22/22/22 29/29/29
f  24/24/24 29/29/29 22/22/22
f  29/29/29 24/24/24 26/26/26
f  26/26/26 30/30/30 29/29/29
f  31/31/31 32/32/32 33/33/33
f  32/32/32 31/31/31 34/34/34
f  35/35/35 34/34/34 31/31/31
f  34/34/34 35/35/35 36/36/36
f  37/37/37 36/36/36 35/35/35
f  32/32/32 38/38/38 33/33/33
f  38/38/38 32/32/32 39/39/39
f  34/34/34 39/39/39 32/32/32
f  39/39/39 34/34/34 36/36/36
f  36/36/36 40/40/40 39/39/39
f  41/41/41 42/42/42 43/43/43
f  42/42/42 41/41/41 44/44/44
f  45/45/45 44/44/44 41/41/41
f  44/44/44 45/45/45 46/46/46
f  47/47/47 46/46/46 45/45/45
f  42/42/42 48/48/48 43/43/43
f  48/48/48 42/42/42 49/49/49
f  44/44/44 49/49/49 42/42/42
f  49/49/49 44/44/44 46/46/46
f  46/46/46 50/50/50 49/49/49