# Vertices 13
v  0.0464 0.6952 -0.1009
v  0.0074 0.5071 0.005
v  0.7915 0.2279 -0.2882
v  0.1456 0.2279 -0.8206
v  -0.6385 0.2279 -0.5275
v  -0.7766 0.2279 0.2981
v  -0.1307 0.2279 0.8306
v  0.6534 0.2279 0.5375
v  0.0464 -0.0012 -0.1009
v  4.4248 0.1476 14.8391
v  14.8022 0.1476 -4.3516
v  -14.7504 0.1476 4.3847
v  -4.3729 0.1476 -14.806

# UVs 5
vt  0.0097 0.9879
vt  1.0 0.9286
vt  0.0745 1.0
vt  0.9255 0.0
vt  0.0 0.0714

# Normals 13
vn  0.0 0.0 0.0
vn  -0.0 0.9332 0.0
vn  0.2922 0.9332 0.1106
vn  0.0522 0.9332 0.3071
vn  -0.2419 0.9332 0.2
vn  -0.2922 0.9332 -0.1106
vn  -0.0522 0.9332 -0.3071
vn  0.2419 0.9332 -0.2
vn  0.0 0.0 0.0
vn  -0.0 1.0 -0.0
vn  -0.0 1.0 -0.0
vn  -0.0 1.0 -0.0
vn  -0.0 1.0 -0.0

# Faces 8
f  2/1/2 3/1/3 4/1/4
f  2/1/2 4/1/4 5/1/5
f  2/1/2 5/1/5 6/1/6
f  2/1/2 6/1/6 7/1/7
f  2/1/2 7/1/7 8/1/8
f  2/1/2 8/1/8 3/1/3
f  12/4/12 10/2/10 13/5/13
f  11/3/11 13/5/13 10/2/10