# Vertices 19
v  96.5215 19.4886 39.9808
v  96.5215 19.4886 -8.4302
v  86.4255 19.4886 39.9808
v  86.4255 19.4886 -8.4302
v  106.8237 19.4886 39.9808
v  106.8237 19.4886 29.8848
v  96.5215 -0.1251 12.1521
v  106.8237 -0.1251 12.1521
v  96.5215 19.4886 29.8848
v  86.9773 20.0959 3.5389
v  86.9773 20.0959 -1.2928
v  86.9773 29.3329 3.5389
v  86.9773 29.3329 -1.2928
v  82.871 34.6693 3.5389
v  82.871 34.6693 -1.2928
v  45.2747 34.6874 7.9038
v  45.2747 34.6874 -5.9316
v  82.871 34.6693 7.9038
v  82.871 34.6693 -5.9316

# UVs 24
vt  0.0241 1.0052
vt  0.9987 0.0482
vt  0.9987 3.9656
vt  0.0278 0.0482
vt  0.0241 0.0103
vt  1.0063 0.0103
vt  0.0182 2.0612
vt  1.0324 0.047
vt  1.0063 1.0052
vt  0.0012 0.0815
vt  0.9988 0.0815
vt  0.0012 2.0591
vt  0.9988 2.0591
vt  0.019 1.0591
vt  1.0421 1.0591
vt  0.0107 2.9324
vt  1.0283 2.9324
vt  0.0107 0.0372
vt  1.0283 0.0372
vt  0.0278 3.9656
vt  0.0182 0.047
vt  1.0324 2.0612
vt  0.019 2.0388
vt  1.0421 2.0388

# Normals 19
vn  -0.0 1.0 -0.0
vn  -0.0 1.0 -0.0
vn  -0.0 1.0 -0.0
vn  -0.0 1.0 -0.0
vn  -0.0 1.0 -0.0
vn  -0.0 0.914 0.4058
vn  -0.0 0.6706 0.7418
vn  -0.0 0.6706 0.7418
vn  -0.0 0.914 0.4058
vn  1.0 -0.0 -0.0
vn  1.0 -0.0 -0.0
vn  0.9059 0.4234 -0.0
vn  0.9762 0.2169 -0.0
vn  0.7925 0.6098 -0.0
vn  0.7925 0.6098 -0.0
vn  0.0005 1.0 -0.0
vn  0.0005 1.0 -0.0
vn  0.0005 1.0 -0.0
vn  0.0005 1.0 -0.0

# Faces 12
f  1/2/1 2/3/2 4/20/4
f  4/20/4 3/4/3 1/2/1
f  9/9/9 1/1/1 5/5/5
f  5/5/5 6/6/6 9/9/9
f  9/22/9 6/7/6 8/21/8
f  8/21/8 7/8/7 9/22/9
f  10/10/10 11/11/11 13/13/13
f  13/13/13 12/12/12 10/10/10
f  12/14/12 13/15/13 15/24/15
f  15/24/15 14/23/14 12/14/12
f  18/18/18 19/19/19 17/17/17
f  17/17/17 16/16/16 18/18/18